<?xml version="1.0" encoding="UTF-8"?>
<svg width="90pt" height="90pt" version="1.1" viewBox="0 0 752 752" xmlns="http://www.w3.org/2000/svg">
<g fill="#fff">
<path d="m305.34 362.96 14.891 14.797 55.773-55.684 55.777 55.777 14.891-14.801-70.668-70.664z"/>
<path d="m368.79 144.85c-122 3.7031-220.23 101.93-223.93 223.93-4.0664 132.83 105.54 242.43 238.27 238.27 122-3.6992 220.23-101.93 223.93-223.93 4.0703-132.73-105.45-242.34-238.27-238.27zm62.992 323.64-55.777-55.773-55.773 55.773-23.773-23.676 79.547-79.547 79.547 79.547zm0-81.766-55.777-55.773-55.773 55.773-23.773-23.68 79.547-79.547 79.547 79.547z"/>
<path d="m305.34 444.82 14.891 14.797 55.773-55.773 55.777 55.773 14.891-14.797-70.668-70.668z"/>
</g>
</svg>
